<?xml version="1.0" standalone="no"?>
<!DOCTYPE svg PUBLIC "-//W3C//DTD SVG 20010904//EN"
 "http://www.w3.org/TR/2001/REC-SVG-20010904/DTD/svg10.dtd">
<svg version="1.0" xmlns="http://www.w3.org/2000/svg"
 width="869.000000pt" height="250.000000pt" viewBox="0 0 869.000000 250.000000"
 preserveAspectRatio="xMidYMid meet">

<g transform="translate(0.000000,250.000000) scale(0.100000,-0.100000)"
fill="#000000" stroke="none">
<path d="M1140 2069 c0 -5 -9 -9 -19 -9 -11 0 -32 -11 -47 -23 l-27 -24 21
-19 c11 -10 28 -25 36 -32 13 -10 16 -34 16 -108 0 -89 -1 -95 -22 -103 -13
-5 -98 -21 -190 -36 -207 -32 -268 -49 -268 -74 0 -10 17 -38 39 -62 l39 -44
89 -3 89 -4 34 -96 c18 -54 41 -114 52 -134 39 -80 60 -73 -512 -178 -86 -15
-171 -32 -189 -37 -42 -11 -60 -36 -45 -61 9 -13 28 -18 92 -20 68 -2 103 3
229 37 81 22 189 48 238 56 50 9 99 19 109 22 18 5 19 1 13 -58 -3 -35 -13
-107 -23 -159 -9 -52 -18 -142 -21 -200 -4 -95 -2 -109 19 -150 23 -45 23 -45
74 -44 27 1 65 9 83 19 43 22 79 8 117 -47 37 -52 61 -68 105 -68 57 0 78 24
106 125 23 85 33 142 51 309 7 57 13 72 36 92 32 28 53 31 60 7 3 -10 10 -61
16 -114 5 -52 16 -128 25 -168 8 -40 15 -74 15 -76 0 -16 38 -35 69 -35 48 0
67 16 81 68 l11 42 128 0 128 0 100 79 c122 96 143 124 143 183 0 51 -14 68
-75 94 -29 12 -54 14 -102 9 -40 -4 -63 -3 -63 3 0 6 33 37 74 69 145 114 273
375 227 461 -19 36 -68 55 -122 49 -33 -4 -58 -1 -79 9 -25 13 -34 13 -46 3
-12 -9 -20 -9 -42 1 -29 15 -274 27 -317 16 -33 -8 -33 -40 1 -62 14 -9 52
-22 85 -28 l59 -11 -64 -95 c-142 -209 -304 -398 -329 -386 -7 3 -34 22 -61
41 -55 40 -104 45 -177 20 -24 -9 -70 -19 -101 -22 -49 -5 -58 -3 -58 10 0 25
41 47 106 57 33 6 84 18 114 27 30 9 100 19 155 22 l100 6 3 30 c5 60 -6 63
-168 47 -57 -6 -106 -9 -109 -7 -2 3 16 28 41 57 67 80 166 213 179 241 9 20
8 30 -5 49 -16 24 -15 26 6 40 13 8 37 18 53 22 79 18 110 48 103 97 -3 26
-29 36 -98 38 -25 1 -50 5 -56 9 -6 4 -25 35 -43 69 -49 97 -131 151 -253 166
-21 3 -38 1 -38 -4z m85 -469 c19 -7 39 -7 66 1 22 7 42 9 45 6 15 -15 -151
-248 -182 -255 -19 -5 -28 45 -16 86 12 39 9 52 -14 52 -19 0 -94 69 -94 86 0
7 10 16 23 18 12 3 31 7 42 9 39 9 104 7 130 -3z m908 -44 c48 -11 52 -14 49
-39 -6 -54 -61 -157 -124 -229 -35 -40 -75 -86 -89 -101 -41 -49 -51 -50 -140
-20 -45 15 -84 33 -86 40 -3 7 21 45 53 84 85 101 109 138 123 188 7 24 26 57
42 73 31 32 47 32 172 4z m-377 -483 c35 -36 63 -72 60 -79 -2 -6 -35 -17 -73
-24 -61 -11 -73 -10 -118 8 -27 11 -50 25 -50 31 0 10 102 131 111 131 2 0 34
-30 70 -67z m-493 -63 c-3 -61 -15 -155 -19 -160 -3 -2 -20 12 -37 33 -29 34
-38 38 -94 44 -69 6 -81 23 -44 57 26 23 128 56 166 53 25 -2 30 -6 28 -27z
m765 -101 c-45 -80 -94 -127 -152 -143 -30 -9 -72 -16 -95 -16 -37 0 -42 3
-61 40 -11 21 -20 48 -20 58 0 53 124 100 268 101 l83 1 -23 -41z m-918 -87
c0 -27 -59 -112 -77 -112 -13 0 -15 10 -11 50 6 60 21 80 59 80 21 0 29 -5 29
-18z m134 -63 c9 -49 7 -75 -10 -119 -13 -33 -21 -40 -43 -40 -42 0 -141 22
-141 31 0 4 32 42 71 83 81 86 112 97 123 45z"/>
<path d="M3747 2046 c-47 -17 -79 -45 -75 -65 3 -13 18 -16 78 -16 69 0 75 -2
88 -26 14 -23 13 -31 -9 -87 -13 -35 -41 -84 -62 -110 -21 -26 -70 -90 -109
-142 -82 -108 -124 -153 -138 -145 -5 3 -46 -4 -92 -16 -46 -12 -123 -27 -172
-33 -53 -7 -91 -17 -94 -24 -5 -16 53 -70 85 -78 14 -4 52 3 89 15 90 30 113
28 125 -9 6 -16 15 -30 20 -30 27 0 -2 -32 -81 -90 -110 -80 -168 -107 -240
-115 -89 -9 -247 -42 -283 -60 -33 -15 -57 -50 -57 -80 0 -49 135 -63 198 -20
27 19 50 25 88 25 29 0 65 7 80 15 17 8 55 15 90 15 42 0 65 5 74 15 16 19 80
20 80 1 0 -22 -30 -88 -54 -121 -13 -16 -44 -69 -70 -116 -27 -47 -73 -114
-103 -148 -49 -55 -59 -61 -84 -56 -35 8 -69 -10 -69 -36 0 -28 27 -77 49 -89
44 -23 122 -4 187 45 38 29 133 169 167 246 14 31 29 59 34 62 17 11 127 -29
199 -71 74 -43 112 -79 137 -127 26 -49 66 -86 131 -116 79 -37 115 -37 155 0
46 43 42 62 -30 157 -54 70 -199 142 -321 159 -26 3 -50 10 -53 14 -2 5 -40
17 -82 26 -110 25 -110 26 -72 121 17 43 38 87 46 96 8 9 54 26 102 37 69 16
111 20 209 16 131 -4 163 3 223 48 41 30 40 71 -2 86 -51 18 -107 13 -218 -19
-57 -17 -134 -35 -170 -40 -36 -6 -78 -13 -93 -16 -26 -5 -26 -4 -26 43 0 63
8 76 75 114 32 18 66 39 76 47 10 9 50 34 89 56 60 34 73 47 80 75 12 46 5 59
-37 67 -32 6 -166 -9 -202 -23 -29 -11 -11 17 20 32 53 25 112 90 195 214 74
111 77 117 80 182 4 68 4 68 -29 88 -41 25 -161 28 -222 7z m-67 -641 c-24
-25 -65 -35 -58 -13 5 13 70 50 77 43 2 -3 -6 -16 -19 -30z m-226 -290 c-23
-17 -34 -19 -34 -5 0 11 42 31 49 24 3 -2 -4 -11 -15 -19z"/>
<path d="M7478 2054 c-26 -8 -22 -35 18 -143 44 -117 56 -141 83 -165 12 -11
21 -22 21 -26 0 -4 -33 -13 -72 -20 -40 -7 -95 -16 -123 -21 -59 -10 -105 4
-105 32 0 10 -9 21 -21 24 -16 5 -31 -2 -60 -31 -22 -21 -50 -53 -62 -71 -12
-18 -28 -33 -34 -33 -31 0 -3 114 44 176 26 35 32 104 10 123 -8 6 -48 10 -91
10 -73 -1 -79 -3 -128 -39 -41 -31 -64 -41 -122 -49 -153 -23 -190 -31 -200
-41 -14 -14 17 -71 55 -99 37 -28 128 -45 202 -38 l57 5 1 -56 c0 -32 4 -93 8
-137 12 -109 3 -127 -43 -82 -13 13 -26 42 -30 66 -8 52 -66 118 -112 127
l-31 6 -13 -111 c-7 -63 -10 -139 -6 -174 4 -34 6 -66 6 -72 -2 -20 -19 -315
-30 -520 -6 -115 -8 -219 -6 -230 8 -30 98 -62 132 -46 47 21 55 61 59 329 2
136 7 307 11 380 6 126 8 133 27 130 14 -2 25 -18 37 -56 10 -29 19 -54 21
-55 65 -45 86 -46 124 -7 25 26 30 40 33 98 4 63 8 71 57 137 29 39 67 96 85
127 36 65 36 65 250 112 236 51 385 64 463 37 45 -15 47 -26 7 -46 -37 -19
-42 -55 -6 -55 13 0 42 7 65 15 23 8 63 14 88 13 37 -2 49 2 64 21 34 42 20
89 -33 117 -52 27 -195 39 -358 31 l-35 -2 -6 70 c-8 104 -52 175 -133 217
-39 20 -134 32 -168 22z"/>
<path d="M5730 2025 c0 -8 17 -23 38 -33 42 -20 47 -48 11 -72 -12 -8 -49 -40
-83 -71 -80 -74 -278 -223 -343 -257 -12 -7 -81 -25 -155 -42 -73 -16 -143
-32 -156 -36 -19 -5 -31 3 -71 46 l-49 53 -20 -40 c-20 -38 -93 -113 -111
-113 -5 0 -23 -28 -41 -62 -18 -35 -48 -92 -67 -128 -43 -81 -48 -143 -14
-172 28 -22 50 -23 77 -4 28 20 128 171 145 219 7 21 20 44 29 51 17 16 260
90 267 82 3 -3 -6 -19 -20 -36 -48 -57 -59 -167 -20 -205 22 -23 30 -19 90 38
31 28 58 47 60 42 2 -6 21 -35 43 -64 22 -29 40 -59 40 -66 0 -9 -25 -15 -82
-20 -46 -4 -92 -9 -103 -11 -11 -1 -49 -8 -85 -13 -36 -6 -111 -16 -167 -22
-102 -11 -103 -12 -103 -38 0 -48 11 -54 86 -47 38 4 89 14 114 21 56 18 337
61 367 57 17 -2 25 -13 32 -40 34 -140 43 -195 43 -267 1 -72 -3 -89 -28 -134
-15 -29 -40 -61 -55 -72 -44 -31 -212 -68 -357 -78 -73 -5 -135 -11 -138 -14
-13 -13 11 -28 78 -48 62 -18 78 -19 133 -10 34 6 93 11 131 11 86 0 199 16
232 33 30 14 62 91 68 160 2 27 11 62 20 78 13 27 13 33 1 52 -10 15 -16 69
-21 178 -7 183 -23 164 140 168 88 2 118 -1 143 -14 18 -9 47 -15 64 -13 28 3
32 7 35 34 4 38 -19 64 -56 65 -99 4 -168 -2 -179 -17 -7 -10 -13 -12 -18 -4
-3 6 -12 10 -18 9 -56 -7 -137 3 -157 19 -35 28 -18 55 68 110 42 27 85 59 95
70 27 29 19 80 -16 106 l-27 20 -83 -21 c-45 -12 -107 -30 -137 -41 -93 -33
-110 -35 -110 -14 0 10 13 31 29 46 25 24 40 28 117 36 49 5 114 15 144 23 65
17 288 42 297 34 3 -4 -6 -20 -21 -37 -33 -40 -34 -68 -2 -76 14 -3 71 -4 128
-2 91 3 107 6 136 27 17 14 32 34 32 44 0 11 -22 42 -49 69 l-49 49 -255 -3
c-141 -2 -255 -2 -254 -2 1 1 65 49 142 107 214 160 267 227 239 301 -9 23
-194 24 -194 1z m-230 -654 c0 -4 -21 -24 -46 -44 -35 -27 -51 -34 -67 -28
-38 14 -29 28 35 54 70 29 78 31 78 18z"/>
<path d="M5363 1983 c-17 -6 -16 -42 2 -73 8 -14 14 -38 15 -54 0 -33 43 -101
72 -117 14 -8 26 -6 45 6 22 15 24 22 19 54 -4 27 0 47 14 74 19 36 19 37 1
47 -11 5 -29 10 -41 10 -12 0 -35 14 -50 30 -26 28 -49 35 -77 23z"/>
<path d="M3352 1957 c-22 -26 -52 -111 -51 -141 1 -17 -6 -48 -15 -68 -36 -82
-13 -149 64 -188 44 -22 85 -15 97 17 4 10 18 36 31 57 20 32 22 43 13 58 -21
33 -11 52 74 139 75 77 103 119 76 119 -11 0 -56 -33 -145 -107 -41 -35 -79
-63 -84 -63 -5 0 -13 41 -18 92 -9 89 -20 112 -42 85z"/>
<path d="M5031 1911 c-24 -24 -35 -78 -26 -121 9 -40 40 -68 120 -109 59 -30
68 -32 95 -21 46 19 47 46 7 141 -19 43 -30 53 -80 69 -21 6 -45 23 -54 36
-19 29 -37 30 -62 5z"/>
<path d="M7460 1510 c0 -23 6 -33 24 -42 14 -6 30 -24 37 -39 13 -32 25 -36
54 -15 11 7 46 21 77 30 62 18 90 39 82 60 -8 22 -51 28 -139 21 -49 -4 -91
-3 -107 4 -27 10 -28 9 -28 -19z"/>
<path d="M7565 1333 l-179 -88 -84 0 c-76 0 -86 -2 -93 -20 -21 -54 2 -85 64
-85 68 0 117 19 205 77 46 31 86 53 89 50 9 -10 -83 -110 -229 -250 -193 -186
-216 -206 -241 -213 -47 -12 -142 -89 -165 -134 -18 -36 -20 -46 -8 -48 35 -7
218 106 286 178 3 3 41 35 85 72 84 69 182 168 229 231 16 20 33 37 39 37 13
0 3 -230 -12 -258 -6 -11 -11 -54 -11 -95 0 -66 3 -78 29 -114 48 -66 84 -75
291 -69 96 3 216 9 265 14 50 5 117 12 150 15 100 10 174 77 182 164 8 74 -46
183 -88 183 -4 0 -23 -39 -43 -86 -20 -48 -50 -103 -66 -124 -26 -33 -40 -41
-98 -53 -98 -22 -305 -40 -365 -33 -29 4 -76 18 -104 31 -49 22 -52 26 -59 72
-4 28 -2 92 6 153 23 185 24 229 5 251 -22 24 -16 32 85 109 101 77 110 88 85
106 -34 25 -70 15 -250 -73z"/>
</g>
</svg>
